<?xml version="1.0" encoding="UTF-8" standalone="no"?>
<svg
   xmlns:dc="http://purl.org/dc/elements/1.1/"
   xmlns:cc="http://creativecommons.org/ns#"
   xmlns:rdf="http://www.w3.org/1999/02/22-rdf-syntax-ns#"
   xmlns:svg="http://www.w3.org/2000/svg"
   xmlns="http://www.w3.org/2000/svg"
   xmlns:sodipodi="http://sodipodi.sourceforge.net/DTD/sodipodi-0.dtd"
   xmlns:inkscape="http://www.inkscape.org/namespaces/inkscape"
   version="1.1"
   x="0px"
   y="0px"
   viewBox="0 0 84 84"
   id="svg10"
   sodipodi:docname="Learn@Home_ICON_eleve_line.svg"
   width="84"
   height="84"
   inkscape:export-filename="J:\+ DEVELOPPEUR\FORMATION_developpeur\P10_Learn@Home\Lean@Home_ressources\Learn@Home_website\Learn@Home_website_icons\Learn@Home_icon_light_eleve_BLANC.png"
   inkscape:export-xdpi="299"
   inkscape:export-ydpi="299"
   inkscape:version="0.92.3 (2405546, 2018-03-11)">
  <metadata
     id="metadata16">
    <rdf:RDF>
      <cc:Work
         rdf:about="">
        <dc:format>image/svg+xml</dc:format>
        <dc:type
           rdf:resource="http://purl.org/dc/dcmitype/StillImage" />
        <dc:title />
      </cc:Work>
    </rdf:RDF>
  </metadata>
  <defs
     id="defs14" />
  <sodipodi:namedview
     pagecolor="#ffffff"
     bordercolor="#666666"
     borderopacity="1"
     objecttolerance="10"
     gridtolerance="10"
     guidetolerance="10"
     inkscape:pageopacity="0"
     inkscape:pageshadow="2"
     inkscape:window-width="1920"
     inkscape:window-height="1001"
     id="namedview12"
     showgrid="false"
     inkscape:zoom="3.776"
     inkscape:cx="-55.384534"
     inkscape:cy="62.5"
     inkscape:window-x="-9"
     inkscape:window-y="-9"
     inkscape:window-maximized="1"
     inkscape:current-layer="g4" />
  <g
     transform="translate(0,-968.36218)"
     id="g4">
    <path
       style="color:#000000;text-indent:0;text-transform:none;direction:ltr;baseline-shift:baseline;display:inline;overflow:visible;visibility:visible;fill:#000000;fill-opacity:1;stroke:none;stroke-width:1;enable-background:accumulate"
       d="m 32.454545,968.3622 c -1.856059,0 -3.581634,0.62851 -4.802555,1.84943 -1.220923,1.22092 -1.879263,2.97633 -1.879263,4.83238 v 3.99716 c -8.513992,4.46691 -14.318182,13.3929 -14.318182,23.68473 v 4.9517 C 4.9873902,1008.6079 0,1014.141 0,1020.8622 v 20.0455 c 0,1.0385 0.82893891,2.0459 1.5809658,2.4161 0.752027,0.3703 1.4596892,0.4475 2.237216,0.4475 h 7.6363632 c 0,4.7264 3.864568,8.5909 8.590911,8.5909 h 43.90909 c 4.72634,0 8.590909,-3.8645 8.590909,-8.5909 h 7.636363 c 0.777528,0 1.485189,-0.077 2.237216,-0.4475 C 83.171062,1042.9536 84,1041.9462 84,1040.9077 v -20.0455 c 0,-6.7212 -4.987389,-12.2543 -11.454545,-13.1846 v -4.9517 c 0,-10.29183 -5.80419,-19.21782 -14.318183,-23.68473 v -3.99716 c 0,-1.85605 -0.658339,-3.61146 -1.879261,-4.83238 -1.220921,-1.22092 -2.946496,-1.84943 -4.802556,-1.84943 z m 0,3.81817 h 19.09091 c 1.007575,0 1.668365,0.29621 2.117896,0.74575 0.449534,0.44953 0.745741,1.11031 0.745741,2.11789 v 2.35654 c -2.695531,-0.91278 -5.584923,-1.40199 -8.59091,-1.40199 h -7.636364 c -3.005987,0 -5.895379,0.48921 -8.590909,1.40199 v -2.35654 c 0,-1.00758 0.296206,-1.66836 0.745739,-2.11789 0.449533,-0.44954 1.110321,-0.74575 2.117897,-0.74575 z m 5.727273,7.63636 h 7.636364 c 12.724658,0 22.90909,10.18444 22.90909,22.90917 v 19.2699 C 61.237766,1019.411 51.658151,1017.044 42,1017.044 c -9.657103,0.01 -19.237222,2.3683 -26.727273,4.9518 v -19.2699 c 0,-12.72473 10.184433,-22.90917 22.909091,-22.90917 z M 42,991.27127 c -5.249197,0 -9.545455,4.29626 -9.545455,9.54543 0,5.2492 4.296258,9.5455 9.545455,9.5455 5.249195,0 9.545455,-4.2963 9.545455,-9.5455 0,-5.24917 -4.29626,-9.54543 -9.545455,-9.54543 z m 0,3.81819 c 3.185698,0 5.727273,2.54157 5.727273,5.72724 0,3.1858 -2.541575,5.7273 -5.727273,5.7273 -3.185697,0 -5.727272,-2.5415 -5.727272,-5.7273 0,-3.18567 2.541575,-5.72724 5.727272,-5.72724 z m -30.575284,16.43604 c 0.0095,0 0.02029,0 0.02983,0 v 28.4276 H 3.8181818 v -19.0909 c 0,-4.656 3.2331953,-8.4554 7.6065342,-9.3367 z m 61.120739,0 c 4.387833,0.8705 7.636363,4.6705 7.636363,9.3367 v 19.0909 H 72.545455 Z M 42,1020.8622 c 9.555596,0 19.355303,2.5117 26.727272,5.1604 v 17.7487 c 0,2.6771 -2.095613,4.7727 -4.772726,4.7727 h -43.90909 c -2.677112,0 -4.772729,-2.0956 -4.772729,-4.7727 v -17.7487 c 7.371368,-2.648 17.170572,-5.1561 26.727273,-5.1604 z"
       marker="none"
       visibility="visible"
       display="inline"
       overflow="visible"
       id="path2"
       inkscape:connector-curvature="0"
       inkscape:export-xdpi="299"
       inkscape:export-ydpi="299" />
  </g>
</svg>
