<?xml version="1.0" encoding="UTF-8" standalone="no"?>
<svg
   xmlns:dc="http://purl.org/dc/elements/1.1/"
   xmlns:cc="http://creativecommons.org/ns#"
   xmlns:rdf="http://www.w3.org/1999/02/22-rdf-syntax-ns#"
   xmlns:svg="http://www.w3.org/2000/svg"
   xmlns="http://www.w3.org/2000/svg"
   xmlns:sodipodi="http://sodipodi.sourceforge.net/DTD/sodipodi-0.dtd"
   xmlns:inkscape="http://www.inkscape.org/namespaces/inkscape"
   version="1.1"
   x="0px"
   y="0px"
   viewBox="0 0 94.699997 85.400002"
   enable-background="new 0 0 100 100"
   xml:space="preserve"
   id="svg8"
   sodipodi:docname="noun_text message_547011.svg"
   width="94.699997"
   height="85.400002"
   inkscape:version="0.92.3 (2405546, 2018-03-11)"><metadata
     id="metadata14"><rdf:RDF><cc:Work
         rdf:about=""><dc:format>image/svg+xml</dc:format><dc:type
           rdf:resource="http://purl.org/dc/dcmitype/StillImage" /><dc:title></dc:title></cc:Work></rdf:RDF></metadata><defs
     id="defs12" /><sodipodi:namedview
     pagecolor="#ffffff"
     bordercolor="#666666"
     borderopacity="1"
     objecttolerance="10"
     gridtolerance="10"
     guidetolerance="10"
     inkscape:pageopacity="0"
     inkscape:pageshadow="2"
     inkscape:window-width="1920"
     inkscape:window-height="1051"
     id="namedview10"
     showgrid="false"
     inkscape:zoom="1.888"
     inkscape:cx="-14.618644"
     inkscape:cy="62.5"
     inkscape:window-x="-9"
     inkscape:window-y="-9"
     inkscape:window-maximized="1"
     inkscape:current-layer="svg8" /><path
     d="m 57.5,20.199998 c -20.5,0 -37.2,14.6 -37.2,32.6 0,18 16.6,32.6 37.2,32.6 7.4,0 14.4,-1.9 20.2,-5.2 5.2,3.1 10.9,3 14.2,2.6 0.9,-0.1 1.2,-1.3 0.4,-1.9 -3.2,-2.1 -4.9,-5 -5.9,-7.6 5.2,-5.6 8.3,-12.7 8.3,-20.5 0,-18 -16.7,-32.6 -37.2,-32.6 z m -14.1,36.6 c -2.2,0 -4,-1.8 -4,-4 0,-2.2 1.8,-4 4,-4 2.2,0 4,1.8 4,4 0,2.2 -1.8,4 -4,4 z m 14.1,0 c -2.2,0 -4,-1.8 -4,-4 0,-2.2 1.8,-4 4,-4 2.2,0 4,1.8 4,4 0,2.2 -1.8,4 -4,4 z m 14.1,0 c -2.2,0 -4,-1.8 -4,-4 0,-2.2 1.8,-4 4,-4 2.2,0 4,1.8 4,4 0,2.2 -1.8,4 -4,4 z m -64.8,-12.9 c -4.3,-4.6 -6.8,-10.5 -6.8,-16.9 C 0,12.099998 13.8,-1.5258789e-6 30.7,-1.5258789e-6 42.2,-1.5258789e-6 52.3,5.5999985 57.5,13.799998 c 0,0 0,0 0,0 -22.8,0 -41.6,15.8 -43.5,35.8 0,0 0,0 0,0 -4.3,2.6 -9,2.5 -11.7,2.1 -0.8,-0.1 -1,-1.1 -0.3,-1.5 2.5,-1.8 4,-4.2 4.8,-6.3 z"
     id="path2"
     inkscape:connector-curvature="0" /></svg>