<?xml version="1.0" encoding="UTF-8" standalone="no"?>
<svg
   xmlns:dc="http://purl.org/dc/elements/1.1/"
   xmlns:cc="http://creativecommons.org/ns#"
   xmlns:rdf="http://www.w3.org/1999/02/22-rdf-syntax-ns#"
   xmlns:svg="http://www.w3.org/2000/svg"
   xmlns="http://www.w3.org/2000/svg"
   xmlns:sodipodi="http://sodipodi.sourceforge.net/DTD/sodipodi-0.dtd"
   xmlns:inkscape="http://www.inkscape.org/namespaces/inkscape"
   version="1.1"
   x="0px"
   y="0px"
   viewBox="0 0 84 84"
   id="svg10"
   sodipodi:docname="Learn@Home_ICON_dark_eleve.svg"
   inkscape:export-filename="J:\+ DEVELOPPEUR\FORMATION_developpeur\P10_Learn@Home\Lean@Home_ressources\Learn@Home_website\Learn@Home_website_icons\Learn@Home_ICON_dark_eleve_BLANC.png"
   inkscape:export-xdpi="299"
   inkscape:export-ydpi="299"
   inkscape:version="0.92.3 (2405546, 2018-03-11)"
   width="84"
   height="84">
  <metadata
     id="metadata16">
    <rdf:RDF>
      <cc:Work
         rdf:about="">
        <dc:format>image/svg+xml</dc:format>
        <dc:type
           rdf:resource="http://purl.org/dc/dcmitype/StillImage" />
        <dc:title></dc:title>
      </cc:Work>
    </rdf:RDF>
  </metadata>
  <defs
     id="defs14" />
  <sodipodi:namedview
     pagecolor="#ffffff"
     bordercolor="#666666"
     borderopacity="1"
     objecttolerance="10"
     gridtolerance="10"
     guidetolerance="10"
     inkscape:pageopacity="0"
     inkscape:pageshadow="2"
     inkscape:window-width="1920"
     inkscape:window-height="1001"
     id="namedview12"
     showgrid="false"
     inkscape:zoom="1.888"
     inkscape:cx="-139.35381"
     inkscape:cy="178.44489"
     inkscape:window-x="-9"
     inkscape:window-y="-9"
     inkscape:window-maximized="1"
     inkscape:current-layer="g4" />
  <g
     transform="translate(0,-993.36218)"
     id="g4">
    <path
       style="color:#000000;display:inline;overflow:visible;visibility:visible;opacity:1;fill:#000000;fill-opacity:1;stroke:none;stroke-width:3.99999952;stroke-linecap:butt;stroke-linejoin:round;stroke-miterlimit:4;stroke-dashoffset:0;stroke-opacity:1;marker:none;enable-background:accumulate"
       d="m 32,993.36216 c -3,0 -5,2 -5,5 v 3.21874 c 3.374485,-1.44 7.095958,-2.21874 11,-2.21874 h 8 c 3.904042,0 7.625515,0.77874 11,2.21874 v -3.21874 c 0,-3 -2,-5 -5,-5 z m 6,8.00004 c -14.403999,0 -26,11.596 -26,26 v 21.1875 c 8.149795,-2.8748 19.739949,-6.1785 30,-6.1875 10.26125,0 21.850806,3.3113 30,6.1875 v -21.1875 c 0,-14.404 -11.596001,-26 -26,-26 z m 4,16 c 4.418278,0 8,3.5817 8,8 0,4.4182 -3.581722,8 -8,8 -4.418278,0 -8,-3.5818 -8,-8 0,-4.4183 3.581722,-8 8,-8 z m -32,17.1875 c -5.688935,0.9472 -10,5.8466 -10,11.8125 v 21 c 0,0.649 0.7433,1 2,1 h 8 z m 64,0 v 33.8125 h 8 c 1.2567,0 2,-0.351 2,-1 v -21 c 0,-5.9659 -4.311065,-10.8653 -10,-11.8125 z m -32,11.8125 c -9.917828,0 -22.049665,3.5229 -30,6.4062 v 17.5938 c 0,3.878 3.122001,7 7,7 h 46 c 3.877999,0 7,-3.122 7,-7 v -17.5938 c -7.95099,-2.8839 -20.083439,-6.4062 -30,-6.4062 z"
       id="path2"
       inkscape:connector-curvature="0" />
  </g>
</svg>
